<?xml version="1.0" encoding="UTF-8"?>
<svg xmlns="http://www.w3.org/2000/svg" xmlns:xlink="http://www.w3.org/1999/xlink" width="154.928pt" height="101.473pt" viewBox="0 0 154.928 101.473">
<defs>
<g>
<g id="glyph-0-0">
<path d="M 9.171875 -6 C 9.265625 -6.359375 9.28125 -6.453125 10.03125 -6.453125 C 10.25 -6.453125 10.34375 -6.453125 10.34375 -6.65625 C 10.34375 -6.765625 10.25 -6.765625 10.078125 -6.765625 L 8.765625 -6.765625 C 8.515625 -6.765625 8.5 -6.765625 8.375 -6.578125 L 4.765625 -0.9375 L 4 -6.53125 C 3.96875 -6.765625 3.9375 -6.765625 3.6875 -6.765625 L 2.328125 -6.765625 C 2.140625 -6.765625 2.03125 -6.765625 2.03125 -6.578125 C 2.03125 -6.453125 2.125 -6.453125 2.3125 -6.453125 C 2.453125 -6.453125 2.625 -6.453125 2.75 -6.4375 C 2.90625 -6.421875 2.96875 -6.390625 2.96875 -6.28125 C 2.96875 -6.234375 2.953125 -6.21875 2.921875 -6.09375 L 1.671875 -1.046875 C 1.5625 -0.65625 1.390625 -0.34375 0.59375 -0.3125 C 0.546875 -0.3125 0.421875 -0.296875 0.421875 -0.125 C 0.421875 -0.03125 0.46875 0 0.5625 0 C 0.875 0 1.21875 -0.03125 1.546875 -0.03125 C 1.875 -0.03125 2.234375 0 2.5625 0 C 2.609375 0 2.75 0 2.75 -0.203125 C 2.75 -0.3125 2.640625 -0.3125 2.5625 -0.3125 C 2 -0.3125 1.890625 -0.515625 1.890625 -0.75 C 1.890625 -0.8125 1.90625 -0.859375 1.9375 -0.96875 L 3.28125 -6.375 L 4.140625 -0.234375 C 4.15625 -0.109375 4.171875 0 4.296875 0 C 4.390625 0 4.453125 -0.109375 4.5 -0.171875 L 8.515625 -6.453125 L 7.109375 -0.765625 C 7 -0.390625 6.984375 -0.3125 6.203125 -0.3125 C 6.03125 -0.3125 5.921875 -0.3125 5.921875 -0.125 C 5.921875 0 6.046875 0 6.078125 0 C 6.34375 0 7.03125 -0.03125 7.296875 -0.03125 C 7.703125 -0.03125 8.140625 0 8.546875 0 C 8.59375 0 8.734375 0 8.734375 -0.203125 C 8.734375 -0.3125 8.640625 -0.3125 8.453125 -0.3125 C 8.078125 -0.3125 7.8125 -0.3125 7.8125 -0.484375 C 7.8125 -0.53125 7.8125 -0.546875 7.859375 -0.71875 Z M 9.171875 -6 "/>
</g>
<g id="glyph-0-1">
<path d="M 0.453125 1.203125 C 0.359375 1.546875 0.34375 1.609375 -0.09375 1.609375 C -0.203125 1.609375 -0.3125 1.609375 -0.3125 1.796875 C -0.3125 1.875 -0.265625 1.921875 -0.1875 1.921875 C 0.078125 1.921875 0.359375 1.890625 0.640625 1.890625 C 0.96875 1.890625 1.3125 1.921875 1.625 1.921875 C 1.671875 1.921875 1.796875 1.921875 1.796875 1.71875 C 1.796875 1.609375 1.703125 1.609375 1.5625 1.609375 C 1.0625 1.609375 1.0625 1.546875 1.0625 1.453125 C 1.0625 1.34375 1.484375 -0.28125 1.5625 -0.53125 C 1.6875 -0.234375 1.96875 0.109375 2.46875 0.109375 C 3.609375 0.109375 4.859375 -1.34375 4.859375 -2.796875 C 4.859375 -3.71875 4.296875 -4.375 3.53125 -4.375 C 3.046875 -4.375 2.5625 -4.015625 2.234375 -3.640625 C 2.140625 -4.171875 1.71875 -4.375 1.34375 -4.375 C 0.890625 -4.375 0.703125 -4 0.609375 -3.8125 C 0.4375 -3.484375 0.3125 -2.875 0.3125 -2.859375 C 0.3125 -2.75 0.40625 -2.75 0.421875 -2.75 C 0.53125 -2.75 0.53125 -2.765625 0.59375 -2.984375 C 0.765625 -3.6875 0.953125 -4.15625 1.3125 -4.15625 C 1.484375 -4.15625 1.625 -4.078125 1.625 -3.703125 C 1.625 -3.484375 1.59375 -3.375 1.5625 -3.203125 Z M 2.1875 -3.09375 C 2.265625 -3.359375 2.53125 -3.640625 2.703125 -3.78125 C 3.046875 -4.09375 3.34375 -4.15625 3.5 -4.15625 C 3.90625 -4.15625 4.140625 -3.8125 4.140625 -3.234375 C 4.140625 -2.640625 3.8125 -1.5 3.640625 -1.125 C 3.296875 -0.4375 2.828125 -0.109375 2.453125 -0.109375 C 1.796875 -0.109375 1.671875 -0.9375 1.671875 -0.984375 C 1.671875 -1.015625 1.671875 -1.03125 1.703125 -1.15625 Z M 2.1875 -3.09375 "/>
</g>
<g id="glyph-1-0">
<path d="M 0.515625 0.84375 C 0.46875 1.046875 0.453125 1.09375 0.1875 1.09375 C 0.09375 1.09375 0 1.09375 0 1.234375 C 0 1.3125 0.0625 1.34375 0.09375 1.34375 C 0.265625 1.34375 0.5 1.3125 0.6875 1.3125 C 0.921875 1.3125 1.1875 1.34375 1.421875 1.34375 C 1.484375 1.34375 1.546875 1.328125 1.546875 1.1875 C 1.546875 1.09375 1.453125 1.09375 1.375 1.09375 C 1.21875 1.09375 1.03125 1.09375 1.03125 1.015625 C 1.03125 0.984375 1.078125 0.796875 1.109375 0.6875 C 1.1875 0.328125 1.296875 -0.046875 1.359375 -0.34375 C 1.453125 -0.203125 1.671875 0.0625 2.078125 0.0625 C 2.921875 0.0625 3.859375 -0.875 3.859375 -1.90625 C 3.859375 -2.71875 3.296875 -3.0625 2.828125 -3.0625 C 2.390625 -3.0625 2.03125 -2.765625 1.84375 -2.578125 C 1.71875 -2.96875 1.328125 -3.0625 1.125 -3.0625 C 0.859375 -3.0625 0.6875 -2.875 0.578125 -2.6875 C 0.4375 -2.453125 0.328125 -2.046875 0.328125 -2 C 0.328125 -1.90625 0.421875 -1.90625 0.4375 -1.90625 C 0.546875 -1.90625 0.546875 -1.921875 0.59375 -2.109375 C 0.703125 -2.515625 0.828125 -2.859375 1.109375 -2.859375 C 1.28125 -2.859375 1.328125 -2.71875 1.328125 -2.53125 C 1.328125 -2.453125 1.3125 -2.359375 1.3125 -2.3125 Z M 1.828125 -2.234375 C 2.234375 -2.765625 2.578125 -2.859375 2.796875 -2.859375 C 3.078125 -2.859375 3.3125 -2.65625 3.3125 -2.1875 C 3.3125 -1.90625 3.15625 -1.203125 2.953125 -0.796875 C 2.78125 -0.453125 2.4375 -0.125 2.078125 -0.125 C 1.59375 -0.125 1.46875 -0.65625 1.46875 -0.734375 C 1.46875 -0.75 1.484375 -0.8125 1.484375 -0.828125 Z M 1.828125 -2.234375 "/>
</g>
<g id="glyph-1-1">
<path d="M 1.546875 -1.578125 C 1.75 -1.578125 2.296875 -1.59375 2.671875 -1.734375 C 3.1875 -1.90625 3.28125 -2.234375 3.28125 -2.453125 C 3.28125 -2.828125 2.90625 -3.0625 2.421875 -3.0625 C 1.59375 -3.0625 0.46875 -2.421875 0.46875 -1.234375 C 0.46875 -0.53125 0.90625 0.0625 1.71875 0.0625 C 2.890625 0.0625 3.4375 -0.625 3.4375 -0.71875 C 3.4375 -0.75 3.375 -0.828125 3.3125 -0.828125 C 3.28125 -0.828125 3.265625 -0.8125 3.203125 -0.765625 C 2.65625 -0.125 1.859375 -0.125 1.734375 -0.125 C 1.3125 -0.125 1.03125 -0.40625 1.03125 -0.96875 C 1.03125 -1.0625 1.03125 -1.203125 1.109375 -1.578125 Z M 1.171875 -1.78125 C 1.453125 -2.78125 2.234375 -2.859375 2.421875 -2.859375 C 2.71875 -2.859375 2.984375 -2.71875 2.984375 -2.453125 C 2.984375 -1.78125 1.8125 -1.78125 1.515625 -1.78125 Z M 1.171875 -1.78125 "/>
</g>
<g id="glyph-2-0">
<path d="M 2.015625 -3.28125 C 2.0625 -3.390625 2.078125 -3.453125 2.078125 -3.5 C 2.078125 -3.71875 1.875 -3.875 1.671875 -3.875 C 1.40625 -3.875 1.3125 -3.65625 1.28125 -3.546875 L 0.375 -0.546875 C 0.359375 -0.53125 0.328125 -0.4375 0.328125 -0.4375 C 0.328125 -0.359375 0.546875 -0.28125 0.609375 -0.28125 C 0.65625 -0.28125 0.65625 -0.296875 0.703125 -0.40625 Z M 2.015625 -3.28125 "/>
</g>
<g id="glyph-2-1">
<path d="M 5.65625 -2.390625 C 5.65625 -2.65625 5.5625 -2.65625 5.53125 -2.65625 C 5.4375 -2.65625 5.421875 -2.46875 5.421875 -2.375 C 5.390625 -1.859375 5.015625 -1.28125 4.375 -1.28125 C 3.875 -1.28125 3.53125 -1.609375 3.140625 -1.953125 C 2.78125 -2.296875 2.359375 -2.65625 1.8125 -2.65625 C 1.03125 -2.65625 0.53125 -1.859375 0.53125 -1.078125 C 0.53125 -0.8125 0.625 -0.8125 0.65625 -0.8125 C 0.75 -0.8125 0.765625 -0.984375 0.765625 -1.09375 C 0.796875 -1.609375 1.171875 -2.1875 1.8125 -2.1875 C 2.3125 -2.1875 2.65625 -1.859375 3.046875 -1.515625 C 3.40625 -1.171875 3.828125 -0.8125 4.375 -0.8125 C 5.15625 -0.8125 5.65625 -1.609375 5.65625 -2.390625 Z M 5.65625 -2.390625 "/>
</g>
<g id="glyph-2-2">
<path d="M 3.359375 -4.3125 C 4.765625 -4.3125 5.09375 -4.03125 5.09375 -3.5625 C 5.09375 -3.015625 4.671875 -2.359375 3.5 -2.3125 C 3.359375 -2.3125 3.28125 -2.3125 3.09375 -2.203125 C 2.96875 -2.125 2.859375 -2.03125 2.859375 -1.953125 C 2.859375 -1.921875 2.875 -1.90625 2.9375 -1.890625 C 3.234375 -1.84375 3.40625 -1.65625 3.8125 -0.90625 C 4.1875 -0.21875 4.40625 0.140625 4.84375 0.140625 C 5.75 0.140625 6.625 -0.71875 6.625 -0.875 C 6.625 -0.875 6.625 -0.921875 6.546875 -0.921875 C 6.484375 -0.921875 6.21875 -0.859375 6.015625 -0.625 C 5.921875 -0.515625 5.71875 -0.28125 5.34375 -0.28125 C 4.96875 -0.28125 4.71875 -0.75 4.421875 -1.3125 C 4.15625 -1.796875 4.03125 -1.953125 3.953125 -2.046875 C 5.1875 -2.484375 5.734375 -3.234375 5.734375 -3.875 C 5.734375 -4.734375 4.65625 -4.734375 3.3125 -4.734375 C 2.4375 -4.734375 2.015625 -4.734375 1.40625 -4.5 C 0.484375 -4.125 0.265625 -3.53125 0.265625 -3.40625 C 0.265625 -3.359375 0.3125 -3.34375 0.359375 -3.34375 C 0.453125 -3.34375 0.828125 -3.484375 0.921875 -3.734375 C 1 -4.015625 1.09375 -4.265625 2.21875 -4.3125 C 2.078125 -2.421875 1.5625 -1.015625 1.171875 -0.0625 C 1.109375 0.0625 1.109375 0.0625 1.109375 0.078125 C 1.109375 0.125 1.140625 0.140625 1.1875 0.140625 C 1.34375 0.140625 1.640625 -0.03125 1.71875 -0.15625 C 1.734375 -0.171875 2.640625 -2.046875 2.828125 -4.3125 Z M 3.359375 -4.3125 "/>
</g>
<g id="glyph-3-0">
<path d="M 1.78125 -2.296875 C 1.78125 -2.3125 1.828125 -2.40625 1.828125 -2.484375 C 1.828125 -2.65625 1.671875 -2.765625 1.53125 -2.765625 C 1.328125 -2.765625 1.265625 -2.609375 1.25 -2.546875 L 0.484375 -0.390625 C 0.453125 -0.34375 0.453125 -0.328125 0.453125 -0.3125 C 0.453125 -0.234375 0.671875 -0.1875 0.671875 -0.1875 C 0.71875 -0.1875 0.734375 -0.21875 0.765625 -0.265625 Z M 1.78125 -2.296875 "/>
</g>
<g id="glyph-4-0">
<path d="M 0.6875 0.578125 C 0.65625 0.703125 0.65625 0.734375 0.4375 0.734375 C 0.359375 0.734375 0.265625 0.734375 0.265625 0.875 C 0.265625 0.9375 0.3125 0.953125 0.359375 0.953125 C 0.421875 0.953125 0.515625 0.953125 0.59375 0.953125 C 0.671875 0.953125 0.765625 0.9375 0.84375 0.9375 C 0.9375 0.9375 1.03125 0.953125 1.140625 0.953125 C 1.21875 0.953125 1.328125 0.953125 1.40625 0.953125 C 1.46875 0.953125 1.53125 0.921875 1.53125 0.828125 C 1.53125 0.734375 1.453125 0.734375 1.375 0.734375 C 1.21875 0.734375 1.109375 0.734375 1.109375 0.671875 C 1.109375 0.65625 1.1875 0.34375 1.328125 -0.25 C 1.453125 -0.078125 1.65625 0.046875 1.921875 0.046875 C 2.625 0.046875 3.3125 -0.625 3.3125 -1.328125 C 3.3125 -1.828125 2.953125 -2.1875 2.453125 -2.1875 C 2.0625 -2.1875 1.765625 -1.9375 1.671875 -1.84375 C 1.5625 -2.109375 1.265625 -2.1875 1.078125 -2.1875 C 0.921875 -2.1875 0.765625 -2.109375 0.640625 -1.921875 C 0.515625 -1.703125 0.453125 -1.453125 0.453125 -1.421875 C 0.453125 -1.359375 0.53125 -1.359375 0.5625 -1.359375 C 0.640625 -1.359375 0.65625 -1.375 0.671875 -1.453125 C 0.71875 -1.65625 0.828125 -2.015625 1.0625 -2.015625 C 1.234375 -2.015625 1.265625 -1.859375 1.265625 -1.765625 C 1.265625 -1.6875 1.265625 -1.671875 1.25 -1.625 Z M 1.640625 -1.46875 C 1.65625 -1.5625 1.671875 -1.5625 1.75 -1.671875 C 1.953125 -1.875 2.203125 -2.015625 2.4375 -2.015625 C 2.640625 -2.015625 2.875 -1.890625 2.875 -1.515625 C 2.875 -1.296875 2.765625 -0.828125 2.625 -0.578125 C 2.40625 -0.21875 2.109375 -0.109375 1.921875 -0.109375 C 1.515625 -0.109375 1.40625 -0.515625 1.40625 -0.5625 C 1.40625 -0.578125 1.421875 -0.609375 1.421875 -0.640625 Z M 1.640625 -1.46875 "/>
</g>
</g>
</defs>
<g fill="rgb(0%, 0%, 0%)" fill-opacity="1">
<use xlink:href="#glyph-0-0" x="10.578371" y="17.024583"/>
</g>
<g fill="rgb(0%, 0%, 0%)" fill-opacity="1">
<use xlink:href="#glyph-1-0" x="20.193435" y="18.511859"/>
</g>
<g fill="rgb(0%, 0%, 0%)" fill-opacity="1">
<use xlink:href="#glyph-0-0" x="80.883242" y="17.024583"/>
</g>
<g fill="rgb(0%, 0%, 0%)" fill-opacity="1">
<use xlink:href="#glyph-2-0" x="91.578695" y="13.42826"/>
</g>
<g fill="rgb(0%, 0%, 0%)" fill-opacity="1">
<use xlink:href="#glyph-1-0" x="90.498306" y="19.474857"/>
</g>
<g fill="rgb(0%, 0%, 0%)" fill-opacity="1">
<use xlink:href="#glyph-0-0" x="127.400654" y="52.691347"/>
</g>
<g fill="rgb(0%, 0%, 0%)" fill-opacity="1">
<use xlink:href="#glyph-1-0" x="137.015718" y="54.177628"/>
</g>
<g fill="rgb(0%, 0%, 0%)" fill-opacity="1">
<use xlink:href="#glyph-3-0" x="141.101499" y="52.19592"/>
</g>
<g fill="rgb(0%, 0%, 0%)" fill-opacity="1">
<use xlink:href="#glyph-0-1" x="15.183454" y="88.072595"/>
</g>
<g fill="rgb(0%, 0%, 0%)" fill-opacity="1">
<use xlink:href="#glyph-0-1" x="131.955996" y="88.072595"/>
</g>
<g fill="rgb(0%, 0%, 0%)" fill-opacity="1">
<use xlink:href="#glyph-2-0" x="136.942101" y="84.476272"/>
</g>
<path fill="none" stroke-width="0.39848" stroke-linecap="butt" stroke-linejoin="miter" stroke="rgb(0%, 0%, 0%)" stroke-opacity="1" stroke-miterlimit="10" d="M -48.440179 35.422576 L -1.415971 35.422576 " transform="matrix(0.994833, 0, 0, -0.994833, 77.428186, 49.786434)"/>
<path fill="none" stroke-width="0.39848" stroke-linecap="round" stroke-linejoin="round" stroke="rgb(0%, 0%, 0%)" stroke-opacity="1" stroke-miterlimit="10" d="M -2.073629 2.390677 C -1.692755 0.957491 -0.848549 0.2782 -0.000417206 -0.000584192 C -0.848549 -0.279368 -1.692755 -0.954733 -2.073629 -2.391845 " transform="matrix(0.994833, 0, 0, -0.994833, 76.219165, 14.546294)"/>
<g fill="rgb(0%, 0%, 0%)" fill-opacity="1">
<use xlink:href="#glyph-1-1" x="50.948707" y="19.865827"/>
</g>
<path fill="none" stroke-width="0.39848" stroke-linecap="butt" stroke-linejoin="miter" stroke="rgb(0%, 0%, 0%)" stroke-opacity="1" stroke-dasharray="2.78941 1.59395" stroke-miterlimit="10" d="M 22.551612 26.525043 L 47.445857 7.972155 " transform="matrix(0.994833, 0, 0, -0.994833, 77.428186, 49.786434)"/>
<path fill="none" stroke-width="0.39848" stroke-linecap="round" stroke-linejoin="round" stroke="rgb(0%, 0%, 0%)" stroke-opacity="1" stroke-miterlimit="10" d="M -2.074765 2.391211 C -1.695069 0.955229 -0.84815 0.27884 0.000758092 0.000616341 C -0.848266 -0.279544 -1.693785 -0.958672 -2.071154 -2.390795 " transform="matrix(-0.797628, -0.594463, -0.594463, 0.797628, 99.704096, 23.281209)"/>
<path fill="none" stroke-width="0.39848" stroke-linecap="round" stroke-linejoin="round" stroke="rgb(0%, 0%, 0%)" stroke-opacity="1" stroke-miterlimit="10" d="M -2.071718 2.390652 C -1.694368 0.957819 -0.850598 0.279083 -0.00168983 0.000859367 C -0.850714 -0.279301 -1.693084 -0.956083 -2.073602 -2.390552 " transform="matrix(0.797628, 0.594463, 0.594463, -0.797628, 124.785993, 41.974346)"/>
<g fill="rgb(0%, 0%, 0%)" fill-opacity="1">
<use xlink:href="#glyph-2-1" x="114.576258" y="30.296654"/>
</g>
<path fill="none" stroke-width="0.39848" stroke-linecap="butt" stroke-linejoin="miter" stroke="rgb(0%, 0%, 0%)" stroke-opacity="1" stroke-miterlimit="10" d="M -60.062729 -30.350847 L -60.062729 25.837899 " transform="matrix(0.994833, 0, 0, -0.994833, 77.428186, 49.786434)"/>
<path fill="none" stroke-width="0.39848" stroke-linecap="round" stroke-linejoin="round" stroke="rgb(0%, 0%, 0%)" stroke-opacity="1" stroke-miterlimit="10" d="M -2.072509 2.39125 C -1.691635 0.958064 -0.851356 0.278773 0.000702119 -0.0000111509 C -0.851356 -0.278795 -1.691635 -0.958086 -2.072509 -2.391272 " transform="matrix(0, -0.994833, -0.994833, 0, 17.67577, 23.883511)"/>
<g fill="rgb(0%, 0%, 0%)" fill-opacity="1">
<use xlink:href="#glyph-2-2" x="8.538962" y="54.203494"/>
</g>
<path fill="none" stroke-width="0.39848" stroke-linecap="butt" stroke-linejoin="miter" stroke="rgb(0%, 0%, 0%)" stroke-opacity="1" stroke-miterlimit="10" d="M -53.069566 -35.993281 L 49.923502 -35.993281 " transform="matrix(0.994833, 0, 0, -0.994833, 77.428186, 49.786434)"/>
<path fill="none" stroke-width="0.39848" stroke-linecap="round" stroke-linejoin="round" stroke="rgb(0%, 0%, 0%)" stroke-opacity="1" stroke-miterlimit="10" d="M -2.072996 2.3924 C -1.692122 0.955287 -0.851843 0.279923 0.000215487 0.00113888 C -0.851843 -0.277645 -1.692122 -0.956936 -2.072996 -2.390122 " transform="matrix(0.994833, 0, 0, -0.994833, 127.292754, 85.594883)"/>
<g fill="rgb(0%, 0%, 0%)" fill-opacity="1">
<use xlink:href="#glyph-1-1" x="72.101848" y="90.913839"/>
</g>
<g fill="rgb(0%, 0%, 0%)" fill-opacity="1">
<use xlink:href="#glyph-4-0" x="75.862318" y="91.904693"/>
</g>
<path fill="none" stroke-width="0.39848" stroke-linecap="butt" stroke-linejoin="miter" stroke="rgb(0%, 0%, 0%)" stroke-opacity="1" stroke-miterlimit="10" d="M 58.715019 -27.15072 L 58.715019 -10.015312 " transform="matrix(0.994833, 0, 0, -0.994833, 77.428186, 49.786434)"/>
<path fill="none" stroke-width="0.39848" stroke-linecap="round" stroke-linejoin="round" stroke="rgb(0%, 0%, 0%)" stroke-opacity="1" stroke-miterlimit="10" d="M -2.07363 2.391572 C -1.692756 0.95446 -0.84855 0.279095 -0.000418217 0.00031132 C -0.84855 -0.278473 -1.692756 -0.957764 -2.07363 -2.39095 " transform="matrix(0, -0.994833, -0.994833, 0, 135.840153, 59.550365)"/>
<g fill="rgb(0%, 0%, 0%)" fill-opacity="1">
<use xlink:href="#glyph-2-2" x="138.171715" y="70.444148"/>
</g>
</svg>
